<?xml version="1.0" encoding="utf-8"?><svg width="24" height="24" fill="none" xmlns="http://www.w3.org/2000/svg" viewBox="0 0 24 24"><g clip-path="url(#cclip0)"><path fill-rule="evenodd" clip-rule="evenodd" d="M21.362 14.758s1.94 1.916 2.42 2.803c.01.013.017.027.022.042.196.327.244.584.148.774-.162.313-.71.47-.896.483h-3.43c-.239 0-.736-.062-1.34-.48-.462-.322-.922-.854-1.367-1.373-.665-.772-1.24-1.442-1.822-1.442a.656.656 0 00-.216.036c-.44.14-1 .767-1 2.439 0 .523-.412.82-.701.82h-1.571c-.535 0-3.322-.187-5.793-2.792C2.79 12.878.07 6.48.043 6.424c-.169-.414.186-.64.57-.64h3.463c.465 0 .616.28.722.533.122.289.576 1.446 1.32 2.745 1.204 2.115 1.945 2.975 2.536 2.975.112 0 .22-.028.317-.084.773-.425.629-3.185.593-3.753 0-.11-.001-1.233-.397-1.775-.283-.389-.766-.54-1.057-.595.078-.113.243-.286.456-.388.529-.264 1.485-.302 2.434-.302h.527c1.03.014 1.296.08 1.67.175.754.18.769.668.703 2.331-.02.476-.04 1.01-.04 1.64 0 .135-.006.285-.006.438-.023.853-.053 1.814.55 2.209a.492.492 0 00.26.074c.209 0 .834 0 2.53-2.91.744-1.285 1.32-2.8 1.36-2.915.033-.063.134-.242.256-.314a.575.575 0 01.283-.067h4.074c.444 0 .745.067.804.235.099.272-.019 1.104-1.879 3.62-.313.418-.588.78-.83 1.097-1.685 2.213-1.685 2.325.1 4.005z" fill="#fff"/></g><defs><clipPath id="cclip0"><path fill="#fff" d="M0 0h24v24H0z"/></clipPath></defs></svg>