<?xml version="1.0" encoding="utf-8"?><svg width="26" height="26" fill="none" xmlns="http://www.w3.org/2000/svg" viewBox="0 0 26 26"><path d="M23.896 7.524a2.843 2.843 0 00-2.007-2.007c-1.771-.48-8.889-.48-8.889-.48s-7.117 0-8.889.48a2.844 2.844 0 00-2.007 2.007A29.355 29.355 0 001.625 13c-.012 1.836.149 3.67.48 5.476a2.844 2.844 0 002.006 2.007c1.772.48 8.889.48 8.889.48s7.117 0 8.889-.48a2.843 2.843 0 002.007-2.007c.33-1.806.49-3.64.479-5.476a29.346 29.346 0 00-.48-5.476zm-13.171 8.889V9.588L16.632 13l-5.907 3.413z" fill="#fff"/></svg>